<svg xmlns="http://www.w3.org/2000/svg"  viewBox="0 0 64 64" width="64px" height="64px"><linearGradient id="yZ9i2phoZR7eklcnu190ua" x1="32" x2="32" y1="540" y2="592" gradientTransform="translate(0 -534)" gradientUnits="userSpaceOnUse"><stop offset="0" stop-color="#1a6dff"/><stop offset="1" stop-color="#c822ff"/></linearGradient><path fill="url(#yZ9i2phoZR7eklcnu190ua)" d="M32,58C17.7,58,6,46.3,6,32S17.7,6,32,6s26,11.7,26,26S46.3,58,32,58z M32,8C18.8,8,8,18.8,8,32s10.8,24,24,24	s24-10.8,24-24S45.2,8,32,8z"/><linearGradient id="yZ9i2phoZR7eklcnu190ub" x1="41.568" x2="41.568" y1="36.091" y2="33.937" gradientTransform="matrix(1 0 0 -1 0 66)" gradientUnits="userSpaceOnUse"><stop offset="0" stop-color="#6dc7ff"/><stop offset="1" stop-color="#e6abff"/></linearGradient><path fill="url(#yZ9i2phoZR7eklcnu190ub)" d="M41.5,29.9c-0.3,0-0.4,0.4-0.4,0.7c0,0.6,0.3,1.1,0.6,1.5c0.1-0.4,0.2-0.8,0.2-1.1C42,30.2,41.7,29.9,41.5,29.9	z"/><linearGradient id="yZ9i2phoZR7eklcnu190uc" x1="32" x2="32" y1="56" y2="12" gradientTransform="matrix(1 0 0 -1 0 66)" gradientUnits="userSpaceOnUse"><stop offset="0" stop-color="#6dc7ff"/><stop offset="1" stop-color="#e6abff"/></linearGradient><path fill="url(#yZ9i2phoZR7eklcnu190uc)" d="M32,10c-12.1,0-22,9.9-22,22s9.9,22,22,22s22-9.8,22-22S44.2,10,32,10z M48.4,37.3c-0.1,0-0.1,0-0.2,0	c-1-0.4-1.4-1.1-1.6-1.8c-0.4,0.5-0.9,0.8-1.4,0.8c-0.9,0-1.8-0.8-1.9-1.8c-0.1-0.4,0-0.9,0.1-1.3c-0.4,0.2-0.8,0.4-1.1,0.4	c-0.1,0-0.2,0-0.3,0c-0.9,1.3-1.8,2.2-2.5,2.6c-0.3,0.2-0.6,0.2-0.8,0.2c-0.2,0-0.3,0-0.4-0.2c-0.2-0.3-0.3-0.8-0.4-1.4	c-0.9,1-2.2,1.5-2.9,1.5c-0.7,0-1.1-0.4-1.2-1.1c0-0.3,0-0.5,0-0.8c0.2-1.5,0.8-2.4,0.7-2.6c0-0.1-0.1-0.1-0.1-0.1	c-0.5,0-2,1.6-2.3,2.7l-0.2,0.9c-0.1,0.6-0.7,1-1.1,1c-0.2,0-0.3-0.1-0.4-0.3c0-0.1,0-0.2,0-0.3l0.1-0.5c-0.9,0.6-1.8,1.1-2.2,1.1	c-0.6,0-0.9-0.3-1-0.8C27,36,26.5,36.3,26,36.3c-0.7,0-1.4-0.5-1.7-1.2c-0.5,0.5-1,1-1.7,1.5c-1,0.6-2,1.1-3.3,1.1	c-1.2,0-2.2-0.6-2.7-1.1c-0.8-0.8-1.3-1.9-1.4-3c-0.4-3.3,1.6-7.6,4.7-9.5c0.7-0.4,1.5-0.7,2.2-0.7c1.5,0,2.6,1.1,2.8,2.3	c0.1,1.2-0.3,2.1-1.6,2.8c-0.7,0.3-1,0.3-1.1,0.2c-0.1-0.1,0-0.3,0.1-0.4c1.2-1,1.2-1.8,1.1-3c-0.1-0.7-0.6-1.2-1.1-1.2	c-2.4,0-5.7,5.3-5.3,9.1c0.2,1.5,1.1,3.2,3,3.2c0.6,0,1.3-0.2,1.9-0.5c1-0.5,1.6-0.9,2.2-1.6c-0.1-1.8,1.4-4,3.7-4	c1,0,1.8,0.4,1.9,1.2c0.1,1-0.7,1.2-1,1.2c-0.3,0-0.7-0.1-0.7-0.3c0-0.3,0.6-0.1,0.5-0.8c0-0.4-0.5-0.5-0.9-0.5c-1.4,0-2.2,2-2,3.2	c0.1,0.6,0.4,1.1,0.9,1.1c0.4,0,1-0.6,1.2-1.5c0.1-0.6,0.7-1,1.1-1c0.2,0,0.4,0.1,0.4,0.3c0,0.1,0,0.2,0,0.3c0,0.3-0.2,1.1-0.2,1.3	c0,0.2,0.1,0.4,0.4,0.4c0.2,0,1-0.4,1.7-1.1c0.2-1.2,0.5-2.6,0.5-2.7c0.1-0.5,0.3-1,1.2-1c0.2,0,0.3,0.1,0.4,0.3c0,0.1,0,0.2,0,0.3	l-0.3,1.2c0.8-1.1,2.2-2,2.9-2c0.3,0,0.6,0.2,0.6,0.5c0,0.2,0,0.5-0.2,0.9c-0.3,0.8-0.6,1.9-0.8,2.9c0,0.2,0,0.5,0.4,0.5	c0.3,0,1.3-0.4,2.1-1.4c0-0.2,0-0.3,0-0.5c0-0.8,0.1-1.5,0.2-2c0.2-0.5,0.8-1,1.2-1c0.2,0,0.4,0.1,0.4,0.4c0,0.1,0,0.2-0.1,0.3	c-0.3,0.9-0.5,1.7-0.5,2.5c0,0.5,0.1,1.2,0.2,1.6c0,0.1,0,0.2,0.1,0.2c0.1,0,1.1-0.9,1.7-2c-0.6-0.4-0.9-1.1-0.9-1.9	c0-1.4,0.8-2.2,1.7-2.2c0.6,0,1.2,0.5,1.2,1.4c0,0.6-0.2,1.3-0.6,1.9c0,0,0.1,0,0.2,0c0.5,0,0.9-0.2,1.1-0.5	c0.1-0.1,0.2-0.2,0.3-0.3c0.7-0.8,1.6-1.4,2.8-1.4c1,0,1.8,0.4,1.9,1.2c0.1,1-0.7,1.2-1,1.2c-0.3,0-0.7-0.1-0.8-0.3	c0-0.3,0.6-0.1,0.5-0.7c0-0.4-0.5-0.6-0.9-0.6c-1.3,0-2.2,1.8-2.1,3.2c0.1,0.6,0.3,1.1,0.8,1.1c0.4,0,1-0.6,1.3-1.5	c0.1-0.6,0.7-1,1.1-1c0.2,0,0.4,0.1,0.4,0.3c0,0.1,0,0.4-0.3,1.3C48,35,48,35.4,48,35.6c0.1,0.6,0.3,0.9,0.6,1.2	c0.1,0.1,0.1,0.2,0.1,0.2C48.8,37.2,48.6,37.3,48.4,37.3z"/></svg>