<svg xmlns="http://www.w3.org/2000/svg"  viewBox="0 0 64 64" width="64px" height="64px"><linearGradient id="VtrZvHgykH05gi0pogq0Sa" x1="25.421" x2="31.201" y1="8.935" y2="66.516" gradientUnits="userSpaceOnUse"><stop offset="0" stop-color="#1A6DFF"/><stop offset="1" stop-color="#C822FF"/></linearGradient><path fill="url(#VtrZvHgykH05gi0pogq0Sa)" d="M20.932,20.382h-2c0-5.257,3.685-13.206,9.238-13.206c3.701,0,5.577,3.416,5.577,10.154h-2 c0-8.154-2.692-8.154-3.577-8.154C24.04,9.177,20.932,15.975,20.932,20.382z"/><linearGradient id="VtrZvHgykH05gi0pogq0Sb" x1="31.988" x2="37.767" y1="8.276" y2="65.857" gradientUnits="userSpaceOnUse"><stop offset="0" stop-color="#1A6DFF"/><stop offset="1" stop-color="#C822FF"/></linearGradient><path fill="url(#VtrZvHgykH05gi0pogq0Sb)" d="M27.942,18.969l-1.98-0.286 c0.066-0.454,1.681-11.123,8.232-11.123c3.639,0,5.577,4.834,5.577,8.323h-2c0-2.518-1.427-6.323-3.577-6.323 C29.433,9.56,27.955,18.875,27.942,18.969z"/><linearGradient id="VtrZvHgykH05gi0pogq0Sc" x1="27.398" x2="33.177" y1="8.736" y2="66.318" gradientUnits="userSpaceOnUse"><stop offset="0" stop-color="#1A6DFF"/><stop offset="1" stop-color="#C822FF"/></linearGradient><path fill="url(#VtrZvHgykH05gi0pogq0Sc)" d="M38.005,58.037L8.719,52.164l5.148-31.523 l28.07-6.382l3.852,4.173l4.021,1.005l5.186,34.738L38.005,58.037z M11.006,50.574l26.977,5.448l14.828-3.309l-4.582-31.628 l-3.504-0.856l-3.473-3.761l-25.629,5.826L11.006,50.574z"/><linearGradient id="VtrZvHgykH05gi0pogq0Sd" x1="25.632" x2="27.773" y1="23.867" y2="51.266" gradientUnits="userSpaceOnUse"><stop offset="0" stop-color="#8ab4ff"/><stop offset="1" stop-color="#e492ff"/></linearGradient><path fill="url(#VtrZvHgykH05gi0pogq0Sd)" d="M33.901,29.154	c-2.331-1.083-6.562-1.548-7.58,0.517c-2.426,4.716,6.831,3.399,6.831,11.947c0,8.963-11.597,10.057-15.967,4.713l1.47-4.537	c2.12,1.658,6.213,3.593,7.382,1.218c2.149-4.432-9.442-4.865-5.431-14.209c2.705-6.197,11.612-6.822,15.214-5.112L33.901,29.154z"/></svg>