<svg xmlns="http://www.w3.org/2000/svg" version="1.1" xmlns:xlink="http://www.w3.org/1999/xlink" xmlns:svgjs="http://svgjs.dev/svgjs" width="1440" height="560" preserveAspectRatio="none" viewBox="0 0 1440 560"><g mask="url(&quot;#SvgjsMask1461&quot;)" fill="none"><path d="M-94.19 373.25L-94.19 373.25" stroke="rgba(182, 33, 254, 0.5)" stroke-width="1.5"></path><path d="M-94.19 373.25L77.97 393.54" stroke="rgba(182, 33, 254, 0.5)" stroke-width="1.5"></path><path d="M-90.88 560.08L-90.88 560.08" stroke="rgba(182, 33, 254, 0.5)" stroke-width="1.5"></path><path d="M-90.88 560.08L-49.19 680.71" stroke="rgba(182, 33, 254, 0.5)" stroke-width="1.5"></path><path d="M-90.88 560.08L68.54 507.83" stroke="rgba(182, 33, 254, 0.5)" stroke-width="1.5"></path><path d="M-49.19 680.71L-49.19 680.71" stroke="rgba(182, 33, 254, 0.5)" stroke-width="1.5"></path><path d="M-49.19 680.71L56.52 641.23" stroke="rgba(182, 33, 254, 0.5)" stroke-width="1.5"></path><path d="M-49.19 680.71L68.54 507.83" stroke="rgba(182, 33, 254, 0.5)" stroke-width="1.5"></path><path d="M-49.19 680.71L-94.19 373.25" stroke="rgba(182, 33, 254, 0.5)" stroke-width="1.5"></path><path d="M-49.19 680.71L261.72 653.34" stroke="rgba(182, 33, 254, 0.5)" stroke-width="1.5"></path><path d="M77.97 393.54L77.97 393.54" stroke="rgba(182, 33, 254, 0.5)" stroke-width="1.5"></path><path d="M77.97 393.54L68.54 507.83" stroke="rgba(182, 33, 254, 0.5)" stroke-width="1.5"></path><path d="M77.97 393.54L227.65 375.3" stroke="rgba(182, 33, 254, 0.5)" stroke-width="1.5"></path><path d="M77.97 393.54L258.31 513.55" stroke="rgba(182, 33, 254, 0.5)" stroke-width="1.5"></path><path d="M77.97 393.54L-90.88 560.08" stroke="rgba(182, 33, 254, 0.5)" stroke-width="1.5"></path><path d="M68.54 507.83L68.54 507.83" stroke="rgba(182, 33, 254, 0.5)" stroke-width="1.5"></path><path d="M68.54 507.83L56.52 641.23" stroke="rgba(182, 33, 254, 0.5)" stroke-width="1.5"></path><path d="M56.52 641.23L56.52 641.23" stroke="rgba(182, 33, 254, 0.5)" stroke-width="1.5"></path><path d="M56.52 641.23L-90.88 560.08" stroke="rgba(182, 33, 254, 0.5)" stroke-width="1.5"></path><path d="M56.52 641.23L261.72 653.34" stroke="rgba(182, 33, 254, 0.5)" stroke-width="1.5"></path><path d="M56.52 641.23L258.31 513.55" stroke="rgba(182, 33, 254, 0.5)" stroke-width="1.5"></path><path d="M227.65 375.3L227.65 375.3" stroke="rgba(182, 33, 254, 0.5)" stroke-width="1.5"></path><path d="M227.65 375.3L258.31 513.55" stroke="rgba(182, 33, 254, 0.5)" stroke-width="1.5"></path><path d="M227.65 375.3L392.26 411.97" stroke="rgba(182, 33, 254, 0.5)" stroke-width="1.5"></path><path d="M227.65 375.3L362.58 489.18" stroke="rgba(182, 33, 254, 0.5)" stroke-width="1.5"></path><path d="M227.65 375.3L68.54 507.83" stroke="rgba(182, 33, 254, 0.5)" stroke-width="1.5"></path><path d="M258.31 513.55L258.31 513.55" stroke="rgba(182, 33, 254, 0.5)" stroke-width="1.5"></path><path d="M258.31 513.55L362.58 489.18" stroke="rgba(182, 33, 254, 0.5)" stroke-width="1.5"></path><path d="M258.31 513.55L261.72 653.34" stroke="rgba(182, 33, 254, 0.5)" stroke-width="1.5"></path><path d="M261.72 653.34L261.72 653.34" stroke="rgba(182, 33, 254, 0.5)" stroke-width="1.5"></path><path d="M261.72 653.34L380.44 710.86" stroke="rgba(182, 33, 254, 0.5)" stroke-width="1.5"></path><path d="M261.72 653.34L362.58 489.18" stroke="rgba(182, 33, 254, 0.5)" stroke-width="1.5"></path><path d="M261.72 653.34L68.54 507.83" stroke="rgba(182, 33, 254, 0.5)" stroke-width="1.5"></path><path d="M392.26 411.97L392.26 411.97" stroke="rgba(182, 33, 254, 0.5)" stroke-width="1.5"></path><path d="M392.26 411.97L362.58 489.18" stroke="rgba(182, 33, 254, 0.5)" stroke-width="1.5"></path><path d="M392.26 411.97L487.99 373.82" stroke="rgba(182, 33, 254, 0.5)" stroke-width="1.5"></path><path d="M392.26 411.97L258.31 513.55" stroke="rgba(182, 33, 254, 0.5)" stroke-width="1.5"></path><path d="M392.26 411.97L517.41 548.92" stroke="rgba(182, 33, 254, 0.5)" stroke-width="1.5"></path><path d="M392.26 411.97L261.72 653.34" stroke="rgba(182, 33, 254, 0.5)" stroke-width="1.5"></path><path d="M362.58 489.18L362.58 489.18" stroke="rgba(182, 33, 254, 0.5)" stroke-width="1.5"></path><path d="M380.44 710.86L380.44 710.86" stroke="rgba(182, 33, 254, 0.5)" stroke-width="1.5"></path><path d="M380.44 710.86L560.46 640.34" stroke="rgba(182, 33, 254, 0.5)" stroke-width="1.5"></path><path d="M380.44 710.86L517.41 548.92" stroke="rgba(182, 33, 254, 0.5)" stroke-width="1.5"></path><path d="M380.44 710.86L362.58 489.18" stroke="rgba(182, 33, 254, 0.5)" stroke-width="1.5"></path><path d="M380.44 710.86L258.31 513.55" stroke="rgba(182, 33, 254, 0.5)" stroke-width="1.5"></path><path d="M380.44 710.86L665.35 671.35" stroke="rgba(182, 33, 254, 0.5)" stroke-width="1.5"></path><path d="M487.99 373.82L487.99 373.82" stroke="rgba(182, 33, 254, 0.5)" stroke-width="1.5"></path><path d="M487.99 373.82L362.58 489.18" stroke="rgba(182, 33, 254, 0.5)" stroke-width="1.5"></path><path d="M487.99 373.82L517.41 548.92" stroke="rgba(182, 33, 254, 0.5)" stroke-width="1.5"></path><path d="M517.41 548.92L517.41 548.92" stroke="rgba(182, 33, 254, 0.5)" stroke-width="1.5"></path><path d="M517.41 548.92L560.46 640.34" stroke="rgba(182, 33, 254, 0.5)" stroke-width="1.5"></path><path d="M517.41 548.92L362.58 489.18" stroke="rgba(182, 33, 254, 0.5)" stroke-width="1.5"></path><path d="M517.41 548.92L687.78 546.13" stroke="rgba(182, 33, 254, 0.5)" stroke-width="1.5"></path><path d="M560.46 640.34L560.46 640.34" stroke="rgba(182, 33, 254, 0.5)" stroke-width="1.5"></path><path d="M560.46 640.34L665.35 671.35" stroke="rgba(182, 33, 254, 0.5)" stroke-width="1.5"></path><path d="M560.46 640.34L687.78 546.13" stroke="rgba(182, 33, 254, 0.5)" stroke-width="1.5"></path><path d="M644.86 230.3L644.86 230.3" stroke="rgba(182, 33, 254, 0.5)" stroke-width="1.5"></path><path d="M644.86 230.3L685.21 347.66" stroke="rgba(182, 33, 254, 0.5)" stroke-width="1.5"></path><path d="M644.86 230.3L835.39 236.02" stroke="rgba(182, 33, 254, 0.5)" stroke-width="1.5"></path><path d="M685.21 347.66L685.21 347.66" stroke="rgba(182, 33, 254, 0.5)" stroke-width="1.5"></path><path d="M685.21 347.66L836.42 402.16" stroke="rgba(182, 33, 254, 0.5)" stroke-width="1.5"></path><path d="M685.21 347.66L835.39 236.02" stroke="rgba(182, 33, 254, 0.5)" stroke-width="1.5"></path><path d="M685.21 347.66L687.78 546.13" stroke="rgba(182, 33, 254, 0.5)" stroke-width="1.5"></path><path d="M685.21 347.66L487.99 373.82" stroke="rgba(182, 33, 254, 0.5)" stroke-width="1.5"></path><path d="M687.78 546.13L687.78 546.13" stroke="rgba(182, 33, 254, 0.5)" stroke-width="1.5"></path><path d="M687.78 546.13L665.35 671.35" stroke="rgba(182, 33, 254, 0.5)" stroke-width="1.5"></path><path d="M687.78 546.13L822.27 521.77" stroke="rgba(182, 33, 254, 0.5)" stroke-width="1.5"></path><path d="M665.35 671.35L665.35 671.35" stroke="rgba(182, 33, 254, 0.5)" stroke-width="1.5"></path><path d="M665.35 671.35L814.81 654.21" stroke="rgba(182, 33, 254, 0.5)" stroke-width="1.5"></path><path d="M665.35 671.35L517.41 548.92" stroke="rgba(182, 33, 254, 0.5)" stroke-width="1.5"></path><path d="M665.35 671.35L822.27 521.77" stroke="rgba(182, 33, 254, 0.5)" stroke-width="1.5"></path><path d="M852.81 90.42L852.81 90.42" stroke="rgba(182, 33, 254, 0.5)" stroke-width="1.5"></path><path d="M852.81 90.42L835.39 236.02" stroke="rgba(182, 33, 254, 0.5)" stroke-width="1.5"></path><path d="M852.81 90.42L940.39 252.24" stroke="rgba(182, 33, 254, 0.5)" stroke-width="1.5"></path><path d="M852.81 90.42L1005.92 -103.98" stroke="rgba(182, 33, 254, 0.5)" stroke-width="1.5"></path><path d="M852.81 90.42L644.86 230.3" stroke="rgba(182, 33, 254, 0.5)" stroke-width="1.5"></path><path d="M852.81 90.42L1102.99 244.02" stroke="rgba(182, 33, 254, 0.5)" stroke-width="1.5"></path><path d="M835.39 236.02L835.39 236.02" stroke="rgba(182, 33, 254, 0.5)" stroke-width="1.5"></path><path d="M835.39 236.02L940.39 252.24" stroke="rgba(182, 33, 254, 0.5)" stroke-width="1.5"></path><path d="M835.39 236.02L836.42 402.16" stroke="rgba(182, 33, 254, 0.5)" stroke-width="1.5"></path><path d="M836.42 402.16L836.42 402.16" stroke="rgba(182, 33, 254, 0.5)" stroke-width="1.5"></path><path d="M836.42 402.16L822.27 521.77" stroke="rgba(182, 33, 254, 0.5)" stroke-width="1.5"></path><path d="M836.42 402.16L963.93 396.98" stroke="rgba(182, 33, 254, 0.5)" stroke-width="1.5"></path><path d="M822.27 521.77L822.27 521.77" stroke="rgba(182, 33, 254, 0.5)" stroke-width="1.5"></path><path d="M822.27 521.77L953.96 524.97" stroke="rgba(182, 33, 254, 0.5)" stroke-width="1.5"></path><path d="M822.27 521.77L814.81 654.21" stroke="rgba(182, 33, 254, 0.5)" stroke-width="1.5"></path><path d="M822.27 521.77L963.93 396.98" stroke="rgba(182, 33, 254, 0.5)" stroke-width="1.5"></path><path d="M814.81 654.21L814.81 654.21" stroke="rgba(182, 33, 254, 0.5)" stroke-width="1.5"></path><path d="M814.81 654.21L687.78 546.13" stroke="rgba(182, 33, 254, 0.5)" stroke-width="1.5"></path><path d="M814.81 654.21L953.96 524.97" stroke="rgba(182, 33, 254, 0.5)" stroke-width="1.5"></path><path d="M814.81 654.21L836.42 402.16" stroke="rgba(182, 33, 254, 0.5)" stroke-width="1.5"></path><path d="M814.81 654.21L560.46 640.34" stroke="rgba(182, 33, 254, 0.5)" stroke-width="1.5"></path><path d="M1005.92 -103.98L1005.92 -103.98" stroke="rgba(182, 33, 254, 0.5)" stroke-width="1.5"></path><path d="M1005.92 -103.98L1103.56 -76.38" stroke="rgba(182, 33, 254, 0.5)" stroke-width="1.5"></path><path d="M1005.92 -103.98L1157.02 75.14" stroke="rgba(182, 33, 254, 0.5)" stroke-width="1.5"></path><path d="M1005.92 -103.98L1298.25 -104.38" stroke="rgba(182, 33, 254, 0.5)" stroke-width="1.5"></path><path d="M1005.92 -103.98L1264.11 98.49" stroke="rgba(182, 33, 254, 0.5)" stroke-width="1.5"></path><path d="M1005.92 -103.98L1102.99 244.02" stroke="rgba(182, 33, 254, 0.5)" stroke-width="1.5"></path><path d="M940.39 252.24L940.39 252.24" stroke="rgba(182, 33, 254, 0.5)" stroke-width="1.5"></path><path d="M940.39 252.24L963.93 396.98" stroke="rgba(182, 33, 254, 0.5)" stroke-width="1.5"></path><path d="M940.39 252.24L1102.99 244.02" stroke="rgba(182, 33, 254, 0.5)" stroke-width="1.5"></path><path d="M940.39 252.24L836.42 402.16" stroke="rgba(182, 33, 254, 0.5)" stroke-width="1.5"></path><path d="M963.93 396.98L963.93 396.98" stroke="rgba(182, 33, 254, 0.5)" stroke-width="1.5"></path><path d="M963.93 396.98L953.96 524.97" stroke="rgba(182, 33, 254, 0.5)" stroke-width="1.5"></path><path d="M953.96 524.97L953.96 524.97" stroke="rgba(182, 33, 254, 0.5)" stroke-width="1.5"></path><path d="M953.96 524.97L1103.86 546.07" stroke="rgba(182, 33, 254, 0.5)" stroke-width="1.5"></path><path d="M953.96 524.97L836.42 402.16" stroke="rgba(182, 33, 254, 0.5)" stroke-width="1.5"></path><path d="M953.96 524.97L1136.84 695.02" stroke="rgba(182, 33, 254, 0.5)" stroke-width="1.5"></path><path d="M1103.56 -76.38L1103.56 -76.38" stroke="rgba(182, 33, 254, 0.5)" stroke-width="1.5"></path><path d="M1103.56 -76.38L1157.02 75.14" stroke="rgba(182, 33, 254, 0.5)" stroke-width="1.5"></path><path d="M1103.56 -76.38L1298.25 -104.38" stroke="rgba(182, 33, 254, 0.5)" stroke-width="1.5"></path><path d="M1103.56 -76.38L1264.11 98.49" stroke="rgba(182, 33, 254, 0.5)" stroke-width="1.5"></path><path d="M1103.56 -76.38L852.81 90.42" stroke="rgba(182, 33, 254, 0.5)" stroke-width="1.5"></path><path d="M1157.02 75.14L1157.02 75.14" stroke="rgba(182, 33, 254, 0.5)" stroke-width="1.5"></path><path d="M1157.02 75.14L1264.11 98.49" stroke="rgba(182, 33, 254, 0.5)" stroke-width="1.5"></path><path d="M1157.02 75.14L1102.99 244.02" stroke="rgba(182, 33, 254, 0.5)" stroke-width="1.5"></path><path d="M1157.02 75.14L1266.08 225.8" stroke="rgba(182, 33, 254, 0.5)" stroke-width="1.5"></path><path d="M1102.99 244.02L1102.99 244.02" stroke="rgba(182, 33, 254, 0.5)" stroke-width="1.5"></path><path d="M1102.99 244.02L1266.08 225.8" stroke="rgba(182, 33, 254, 0.5)" stroke-width="1.5"></path><path d="M1102.99 244.02L1255.9 371.44" stroke="rgba(182, 33, 254, 0.5)" stroke-width="1.5"></path><path d="M1103.86 546.07L1103.86 546.07" stroke="rgba(182, 33, 254, 0.5)" stroke-width="1.5"></path><path d="M1103.86 546.07L1136.84 695.02" stroke="rgba(182, 33, 254, 0.5)" stroke-width="1.5"></path><path d="M1136.84 695.02L1136.84 695.02" stroke="rgba(182, 33, 254, 0.5)" stroke-width="1.5"></path><path d="M1136.84 695.02L1243.14 665.29" stroke="rgba(182, 33, 254, 0.5)" stroke-width="1.5"></path><path d="M1298.25 -104.38L1298.25 -104.38" stroke="rgba(182, 33, 254, 0.5)" stroke-width="1.5"></path><path d="M1298.25 -104.38L1448.28 -61.46" stroke="rgba(182, 33, 254, 0.5)" stroke-width="1.5"></path><path d="M1298.25 -104.38L1264.11 98.49" stroke="rgba(182, 33, 254, 0.5)" stroke-width="1.5"></path><path d="M1298.25 -104.38L1434.05 61.3" stroke="rgba(182, 33, 254, 0.5)" stroke-width="1.5"></path><path d="M1264.11 98.49L1264.11 98.49" stroke="rgba(182, 33, 254, 0.5)" stroke-width="1.5"></path><path d="M1264.11 98.49L1266.08 225.8" stroke="rgba(182, 33, 254, 0.5)" stroke-width="1.5"></path><path d="M1264.11 98.49L1434.05 61.3" stroke="rgba(182, 33, 254, 0.5)" stroke-width="1.5"></path><path d="M1266.08 225.8L1266.08 225.8" stroke="rgba(182, 33, 254, 0.5)" stroke-width="1.5"></path><path d="M1266.08 225.8L1255.9 371.44" stroke="rgba(182, 33, 254, 0.5)" stroke-width="1.5"></path><path d="M1266.08 225.8L1438.34 223.46" stroke="rgba(182, 33, 254, 0.5)" stroke-width="1.5"></path><path d="M1255.9 371.44L1255.9 371.44" stroke="rgba(182, 33, 254, 0.5)" stroke-width="1.5"></path><path d="M1255.9 371.44L1300.41 487.78" stroke="rgba(182, 33, 254, 0.5)" stroke-width="1.5"></path><path d="M1255.9 371.44L1418.22 355.35" stroke="rgba(182, 33, 254, 0.5)" stroke-width="1.5"></path><path d="M1300.41 487.78L1300.41 487.78" stroke="rgba(182, 33, 254, 0.5)" stroke-width="1.5"></path><path d="M1300.41 487.78L1415.84 551.01" stroke="rgba(182, 33, 254, 0.5)" stroke-width="1.5"></path><path d="M1300.41 487.78L1418.22 355.35" stroke="rgba(182, 33, 254, 0.5)" stroke-width="1.5"></path><path d="M1300.41 487.78L1243.14 665.29" stroke="rgba(182, 33, 254, 0.5)" stroke-width="1.5"></path><path d="M1300.41 487.78L1103.86 546.07" stroke="rgba(182, 33, 254, 0.5)" stroke-width="1.5"></path><path d="M1243.14 665.29L1243.14 665.29" stroke="rgba(182, 33, 254, 0.5)" stroke-width="1.5"></path><path d="M1243.14 665.29L1103.86 546.07" stroke="rgba(182, 33, 254, 0.5)" stroke-width="1.5"></path><path d="M1448.28 -61.46L1448.28 -61.46" stroke="rgba(182, 33, 254, 0.5)" stroke-width="1.5"></path><path d="M1448.28 -61.46L1434.05 61.3" stroke="rgba(182, 33, 254, 0.5)" stroke-width="1.5"></path><path d="M1448.28 -61.46L1603.11 -49.2" stroke="rgba(182, 33, 254, 0.5)" stroke-width="1.5"></path><path d="M1448.28 -61.46L1564.53 90.04" stroke="rgba(182, 33, 254, 0.5)" stroke-width="1.5"></path><path d="M1448.28 -61.46L1264.11 98.49" stroke="rgba(182, 33, 254, 0.5)" stroke-width="1.5"></path><path d="M1448.28 -61.46L1557.98 188.55" stroke="rgba(182, 33, 254, 0.5)" stroke-width="1.5"></path><path d="M1434.05 61.3L1434.05 61.3" stroke="rgba(182, 33, 254, 0.5)" stroke-width="1.5"></path><path d="M1434.05 61.3L1564.53 90.04" stroke="rgba(182, 33, 254, 0.5)" stroke-width="1.5"></path><path d="M1434.05 61.3L1438.34 223.46" stroke="rgba(182, 33, 254, 0.5)" stroke-width="1.5"></path><path d="M1434.05 61.3L1557.98 188.55" stroke="rgba(182, 33, 254, 0.5)" stroke-width="1.5"></path><path d="M1434.05 61.3L1603.11 -49.2" stroke="rgba(182, 33, 254, 0.5)" stroke-width="1.5"></path><path d="M1438.34 223.46L1438.34 223.46" stroke="rgba(182, 33, 254, 0.5)" stroke-width="1.5"></path><path d="M1438.34 223.46L1557.98 188.55" stroke="rgba(182, 33, 254, 0.5)" stroke-width="1.5"></path><path d="M1438.34 223.46L1418.22 355.35" stroke="rgba(182, 33, 254, 0.5)" stroke-width="1.5"></path><path d="M1418.22 355.35L1418.22 355.35" stroke="rgba(182, 33, 254, 0.5)" stroke-width="1.5"></path><path d="M1415.84 551.01L1415.84 551.01" stroke="rgba(182, 33, 254, 0.5)" stroke-width="1.5"></path><path d="M1415.84 551.01L1545.69 558.33" stroke="rgba(182, 33, 254, 0.5)" stroke-width="1.5"></path><path d="M1415.84 551.01L1448.71 707.53" stroke="rgba(182, 33, 254, 0.5)" stroke-width="1.5"></path><path d="M1448.71 707.53L1448.71 707.53" stroke="rgba(182, 33, 254, 0.5)" stroke-width="1.5"></path><path d="M1448.71 707.53L1560.18 650.09" stroke="rgba(182, 33, 254, 0.5)" stroke-width="1.5"></path><path d="M1448.71 707.53L1545.69 558.33" stroke="rgba(182, 33, 254, 0.5)" stroke-width="1.5"></path><path d="M1448.71 707.53L1243.14 665.29" stroke="rgba(182, 33, 254, 0.5)" stroke-width="1.5"></path><path d="M1448.71 707.53L1300.41 487.78" stroke="rgba(182, 33, 254, 0.5)" stroke-width="1.5"></path><path d="M1603.11 -49.2L1603.11 -49.2" stroke="rgba(182, 33, 254, 0.5)" stroke-width="1.5"></path><path d="M1603.11 -49.2L1564.53 90.04" stroke="rgba(182, 33, 254, 0.5)" stroke-width="1.5"></path><path d="M1603.11 -49.2L1557.98 188.55" stroke="rgba(182, 33, 254, 0.5)" stroke-width="1.5"></path><path d="M1564.53 90.04L1564.53 90.04" stroke="rgba(182, 33, 254, 0.5)" stroke-width="1.5"></path><path d="M1564.53 90.04L1557.98 188.55" stroke="rgba(182, 33, 254, 0.5)" stroke-width="1.5"></path><path d="M1564.53 90.04L1438.34 223.46" stroke="rgba(182, 33, 254, 0.5)" stroke-width="1.5"></path><path d="M1557.98 188.55L1557.98 188.55" stroke="rgba(182, 33, 254, 0.5)" stroke-width="1.5"></path><path d="M1557.98 188.55L1418.22 355.35" stroke="rgba(182, 33, 254, 0.5)" stroke-width="1.5"></path><path d="M1545.69 558.33L1545.69 558.33" stroke="rgba(182, 33, 254, 0.5)" stroke-width="1.5"></path><path d="M1545.69 558.33L1560.18 650.09" stroke="rgba(182, 33, 254, 0.5)" stroke-width="1.5"></path><path d="M1545.69 558.33L1418.22 355.35" stroke="rgba(182, 33, 254, 0.5)" stroke-width="1.5"></path><path d="M1545.69 558.33L1300.41 487.78" stroke="rgba(182, 33, 254, 0.5)" stroke-width="1.5"></path><path d="M1545.69 558.33L1243.14 665.29" stroke="rgba(182, 33, 254, 0.5)" stroke-width="1.5"></path><path d="M1560.18 650.09L1560.18 650.09" stroke="rgba(182, 33, 254, 0.5)" stroke-width="1.5"></path><path d="M1560.18 650.09L1415.84 551.01" stroke="rgba(182, 33, 254, 0.5)" stroke-width="1.5"></path><circle r="5" cx="-94.19" cy="373.25" fill="rgba(182, 33, 254, 0.5)"></circle><circle r="5" cx="-90.88" cy="560.08" fill="rgba(182, 33, 254, 0.5)"></circle><circle r="5" cx="-49.19" cy="680.71" fill="rgba(182, 33, 254, 0.5)"></circle><circle r="5" cx="77.97" cy="393.54" fill="rgba(182, 33, 254, 0.5)"></circle><circle r="5" cx="68.54" cy="507.83" fill="rgba(182, 33, 254, 0.5)"></circle><circle r="5" cx="56.52" cy="641.23" fill="rgba(182, 33, 254, 0.5)"></circle><circle r="5" cx="227.65" cy="375.3" fill="rgba(182, 33, 254, 0.5)"></circle><circle r="5" cx="258.31" cy="513.55" fill="rgba(182, 33, 254, 0.5)"></circle><circle r="5" cx="261.72" cy="653.34" fill="rgba(182, 33, 254, 0.5)"></circle><circle r="5" cx="392.26" cy="411.97" fill="rgba(182, 33, 254, 0.5)"></circle><circle r="5" cx="362.58" cy="489.18" fill="rgba(182, 33, 254, 0.5)"></circle><circle r="5" cx="380.44" cy="710.86" fill="rgba(182, 33, 254, 0.5)"></circle><circle r="5" cx="487.99" cy="373.82" fill="rgba(182, 33, 254, 0.5)"></circle><circle r="5" cx="517.41" cy="548.92" fill="rgba(182, 33, 254, 0.5)"></circle><circle r="5" cx="560.46" cy="640.34" fill="rgba(182, 33, 254, 0.5)"></circle><circle r="5" cx="644.86" cy="230.3" fill="rgba(182, 33, 254, 0.5)"></circle><circle r="5" cx="685.21" cy="347.66" fill="rgba(182, 33, 254, 0.5)"></circle><circle r="5" cx="687.78" cy="546.13" fill="rgba(182, 33, 254, 0.5)"></circle><circle r="5" cx="665.35" cy="671.35" fill="rgba(182, 33, 254, 0.5)"></circle><circle r="5" cx="852.81" cy="90.42" fill="rgba(182, 33, 254, 0.5)"></circle><circle r="5" cx="835.39" cy="236.02" fill="rgba(182, 33, 254, 0.5)"></circle><circle r="5" cx="836.42" cy="402.16" fill="rgba(182, 33, 254, 0.5)"></circle><circle r="5" cx="822.27" cy="521.77" fill="rgba(182, 33, 254, 0.5)"></circle><circle r="5" cx="814.81" cy="654.21" fill="rgba(182, 33, 254, 0.5)"></circle><circle r="5" cx="1005.92" cy="-103.98" fill="rgba(182, 33, 254, 0.5)"></circle><circle r="5" cx="940.39" cy="252.24" fill="rgba(182, 33, 254, 0.5)"></circle><circle r="5" cx="963.93" cy="396.98" fill="rgba(182, 33, 254, 0.5)"></circle><circle r="5" cx="953.96" cy="524.97" fill="rgba(182, 33, 254, 0.5)"></circle><circle r="5" cx="1103.56" cy="-76.38" fill="rgba(182, 33, 254, 0.5)"></circle><circle r="5" cx="1157.02" cy="75.14" fill="rgba(182, 33, 254, 0.5)"></circle><circle r="5" cx="1102.99" cy="244.02" fill="rgba(182, 33, 254, 0.5)"></circle><circle r="5" cx="1103.86" cy="546.07" fill="rgba(182, 33, 254, 0.5)"></circle><circle r="5" cx="1136.84" cy="695.02" fill="rgba(182, 33, 254, 0.5)"></circle><circle r="5" cx="1298.25" cy="-104.38" fill="rgba(182, 33, 254, 0.5)"></circle><circle r="5" cx="1264.11" cy="98.49" fill="rgba(182, 33, 254, 0.5)"></circle><circle r="5" cx="1266.08" cy="225.8" fill="rgba(182, 33, 254, 0.5)"></circle><circle r="5" cx="1255.9" cy="371.44" fill="rgba(182, 33, 254, 0.5)"></circle><circle r="5" cx="1300.41" cy="487.78" fill="rgba(182, 33, 254, 0.5)"></circle><circle r="5" cx="1243.14" cy="665.29" fill="rgba(182, 33, 254, 0.5)"></circle><circle r="5" cx="1448.28" cy="-61.46" fill="rgba(182, 33, 254, 0.5)"></circle><circle r="5" cx="1434.05" cy="61.3" fill="rgba(182, 33, 254, 0.5)"></circle><circle r="5" cx="1438.34" cy="223.46" fill="rgba(182, 33, 254, 0.5)"></circle><circle r="5" cx="1418.22" cy="355.35" fill="rgba(182, 33, 254, 0.5)"></circle><circle r="5" cx="1415.84" cy="551.01" fill="rgba(182, 33, 254, 0.5)"></circle><circle r="5" cx="1448.71" cy="707.53" fill="rgba(182, 33, 254, 0.5)"></circle><circle r="5" cx="1603.11" cy="-49.2" fill="rgba(182, 33, 254, 0.5)"></circle><circle r="5" cx="1564.53" cy="90.04" fill="rgba(182, 33, 254, 0.5)"></circle><circle r="5" cx="1557.98" cy="188.55" fill="rgba(182, 33, 254, 0.5)"></circle><circle r="5" cx="1545.69" cy="558.33" fill="rgba(182, 33, 254, 0.5)"></circle><circle r="5" cx="1560.18" cy="650.09" fill="rgba(182, 33, 254, 0.5)"></circle><path d="M105.89 529.79L105.89 529.79" stroke="hsla(191, 94.8%, 71.4%, 0.5)" stroke-width="1.5"></path><path d="M105.89 529.79L260.82 519.94" stroke="hsla(191, 94.8%, 71.4%, 0.5)" stroke-width="1.5"></path><path d="M105.89 529.79L190.94 672.04" stroke="hsla(191, 94.8%, 71.4%, 0.5)" stroke-width="1.5"></path><path d="M398.81 535.63L398.81 535.63" stroke="hsla(191, 94.8%, 71.4%, 0.5)" stroke-width="1.5"></path><path d="M398.81 535.63L412.48 647.07" stroke="hsla(191, 94.8%, 71.4%, 0.5)" stroke-width="1.5"></path><path d="M398.81 535.63L523.11 507.57" stroke="hsla(191, 94.8%, 71.4%, 0.5)" stroke-width="1.5"></path><path d="M398.81 535.63L260.82 519.94" stroke="hsla(191, 94.8%, 71.4%, 0.5)" stroke-width="1.5"></path><path d="M398.81 535.63L516.26 679.87" stroke="hsla(191, 94.8%, 71.4%, 0.5)" stroke-width="1.5"></path><path d="M398.81 535.63L190.94 672.04" stroke="hsla(191, 94.8%, 71.4%, 0.5)" stroke-width="1.5"></path><path d="M658.8 693.44L658.8 693.44" stroke="hsla(191, 94.8%, 71.4%, 0.5)" stroke-width="1.5"></path><path d="M658.8 693.44L799.1 701.71" stroke="hsla(191, 94.8%, 71.4%, 0.5)" stroke-width="1.5"></path><path d="M658.8 693.44L516.26 679.87" stroke="hsla(191, 94.8%, 71.4%, 0.5)" stroke-width="1.5"></path><path d="M658.8 693.44L690.71 498.29" stroke="hsla(191, 94.8%, 71.4%, 0.5)" stroke-width="1.5"></path><path d="M978.33 557.06L978.33 557.06" stroke="hsla(191, 94.8%, 71.4%, 0.5)" stroke-width="1.5"></path><path d="M978.33 557.06L1007.54 638.65" stroke="hsla(191, 94.8%, 71.4%, 0.5)" stroke-width="1.5"></path><path d="M978.33 557.06L1120.01 558.99" stroke="hsla(191, 94.8%, 71.4%, 0.5)" stroke-width="1.5"></path><path d="M978.33 557.06L962.15 409.6" stroke="hsla(191, 94.8%, 71.4%, 0.5)" stroke-width="1.5"></path><path d="M1438.06 -90.44L1438.06 -90.44" stroke="hsla(191, 94.8%, 71.4%, 0.5)" stroke-width="1.5"></path><path d="M1438.06 -90.44L1544.9 -54.56" stroke="hsla(191, 94.8%, 71.4%, 0.5)" stroke-width="1.5"></path><path d="M1438.06 -90.44L1426.47 45.81" stroke="hsla(191, 94.8%, 71.4%, 0.5)" stroke-width="1.5"></path><path d="M1438.06 -90.44L1260.23 -52.78" stroke="hsla(191, 94.8%, 71.4%, 0.5)" stroke-width="1.5"></path><path d="M1438.06 -90.44L1552.7 63.69" stroke="hsla(191, 94.8%, 71.4%, 0.5)" stroke-width="1.5"></path><path d="M1426.47 45.81L1426.47 45.81" stroke="hsla(191, 94.8%, 71.4%, 0.5)" stroke-width="1.5"></path><path d="M1426.47 45.81L1552.7 63.69" stroke="hsla(191, 94.8%, 71.4%, 0.5)" stroke-width="1.5"></path><path d="M1426.47 45.81L1286.44 87.78" stroke="hsla(191, 94.8%, 71.4%, 0.5)" stroke-width="1.5"></path><path d="M1595.4 241.97L1595.4 241.97" stroke="hsla(191, 94.8%, 71.4%, 0.5)" stroke-width="1.5"></path><path d="M1595.4 241.97L1578.78 394.18" stroke="hsla(191, 94.8%, 71.4%, 0.5)" stroke-width="1.5"></path><path d="M1595.4 241.97L1552.7 63.69" stroke="hsla(191, 94.8%, 71.4%, 0.5)" stroke-width="1.5"></path><path d="M1595.4 241.97L1422.13 349.48" stroke="hsla(191, 94.8%, 71.4%, 0.5)" stroke-width="1.5"></path><path d="M1595.4 241.97L1388.77 240.78" stroke="hsla(191, 94.8%, 71.4%, 0.5)" stroke-width="1.5"></path><path d="M-109.91 524.47L-109.91 524.47" stroke="hsla(191, 94.8%, 71.4%, 0.5)" stroke-width="1.5"></path><path d="M-109.91 524.47L-74.94 670.88" stroke="hsla(191, 94.8%, 71.4%, 0.5)" stroke-width="1.5"></path><path d="M-109.91 524.47L105.89 529.79" stroke="hsla(191, 94.8%, 71.4%, 0.5)" stroke-width="1.5"></path><path d="M-109.91 524.47L96.85 699.44" stroke="hsla(191, 94.8%, 71.4%, 0.5)" stroke-width="1.5"></path><path d="M-109.91 524.47L190.94 672.04" stroke="hsla(191, 94.8%, 71.4%, 0.5)" stroke-width="1.5"></path><path d="M-109.91 524.47L260.82 519.94" stroke="hsla(191, 94.8%, 71.4%, 0.5)" stroke-width="1.5"></path><path d="M-74.94 670.88L-74.94 670.88" stroke="hsla(191, 94.8%, 71.4%, 0.5)" stroke-width="1.5"></path><path d="M-74.94 670.88L96.85 699.44" stroke="hsla(191, 94.8%, 71.4%, 0.5)" stroke-width="1.5"></path><path d="M-74.94 670.88L105.89 529.79" stroke="hsla(191, 94.8%, 71.4%, 0.5)" stroke-width="1.5"></path><path d="M-74.94 670.88L190.94 672.04" stroke="hsla(191, 94.8%, 71.4%, 0.5)" stroke-width="1.5"></path><path d="M-74.94 670.88L260.82 519.94" stroke="hsla(191, 94.8%, 71.4%, 0.5)" stroke-width="1.5"></path><path d="M-74.94 670.88L412.48 647.07" stroke="hsla(191, 94.8%, 71.4%, 0.5)" stroke-width="1.5"></path><path d="M96.85 699.44L96.85 699.44" stroke="hsla(191, 94.8%, 71.4%, 0.5)" stroke-width="1.5"></path><path d="M96.85 699.44L190.94 672.04" stroke="hsla(191, 94.8%, 71.4%, 0.5)" stroke-width="1.5"></path><path d="M96.85 699.44L105.89 529.79" stroke="hsla(191, 94.8%, 71.4%, 0.5)" stroke-width="1.5"></path><path d="M96.85 699.44L260.82 519.94" stroke="hsla(191, 94.8%, 71.4%, 0.5)" stroke-width="1.5"></path><path d="M260.82 519.94L260.82 519.94" stroke="hsla(191, 94.8%, 71.4%, 0.5)" stroke-width="1.5"></path><path d="M190.94 672.04L190.94 672.04" stroke="hsla(191, 94.8%, 71.4%, 0.5)" stroke-width="1.5"></path><path d="M412.48 647.07L412.48 647.07" stroke="hsla(191, 94.8%, 71.4%, 0.5)" stroke-width="1.5"></path><path d="M412.48 647.07L516.26 679.87" stroke="hsla(191, 94.8%, 71.4%, 0.5)" stroke-width="1.5"></path><path d="M412.48 647.07L523.11 507.57" stroke="hsla(191, 94.8%, 71.4%, 0.5)" stroke-width="1.5"></path><path d="M412.48 647.07L260.82 519.94" stroke="hsla(191, 94.8%, 71.4%, 0.5)" stroke-width="1.5"></path><path d="M523.11 507.57L523.11 507.57" stroke="hsla(191, 94.8%, 71.4%, 0.5)" stroke-width="1.5"></path><path d="M523.11 507.57L690.71 498.29" stroke="hsla(191, 94.8%, 71.4%, 0.5)" stroke-width="1.5"></path><path d="M523.11 507.57L516.26 679.87" stroke="hsla(191, 94.8%, 71.4%, 0.5)" stroke-width="1.5"></path><path d="M523.11 507.57L664.85 394.23" stroke="hsla(191, 94.8%, 71.4%, 0.5)" stroke-width="1.5"></path><path d="M516.26 679.87L516.26 679.87" stroke="hsla(191, 94.8%, 71.4%, 0.5)" stroke-width="1.5"></path><path d="M516.26 679.87L690.71 498.29" stroke="hsla(191, 94.8%, 71.4%, 0.5)" stroke-width="1.5"></path><path d="M664.85 394.23L664.85 394.23" stroke="hsla(191, 94.8%, 71.4%, 0.5)" stroke-width="1.5"></path><path d="M664.85 394.23L690.71 498.29" stroke="hsla(191, 94.8%, 71.4%, 0.5)" stroke-width="1.5"></path><path d="M664.85 394.23L812.95 403.29" stroke="hsla(191, 94.8%, 71.4%, 0.5)" stroke-width="1.5"></path><path d="M664.85 394.23L811.6 537.74" stroke="hsla(191, 94.8%, 71.4%, 0.5)" stroke-width="1.5"></path><path d="M664.85 394.23L962.15 409.6" stroke="hsla(191, 94.8%, 71.4%, 0.5)" stroke-width="1.5"></path><path d="M690.71 498.29L690.71 498.29" stroke="hsla(191, 94.8%, 71.4%, 0.5)" stroke-width="1.5"></path><path d="M812.95 403.29L812.95 403.29" stroke="hsla(191, 94.8%, 71.4%, 0.5)" stroke-width="1.5"></path><path d="M812.95 403.29L811.6 537.74" stroke="hsla(191, 94.8%, 71.4%, 0.5)" stroke-width="1.5"></path><path d="M812.95 403.29L962.15 409.6" stroke="hsla(191, 94.8%, 71.4%, 0.5)" stroke-width="1.5"></path><path d="M812.95 403.29L690.71 498.29" stroke="hsla(191, 94.8%, 71.4%, 0.5)" stroke-width="1.5"></path><path d="M812.95 403.29L978.33 557.06" stroke="hsla(191, 94.8%, 71.4%, 0.5)" stroke-width="1.5"></path><path d="M812.95 403.29L799.1 701.71" stroke="hsla(191, 94.8%, 71.4%, 0.5)" stroke-width="1.5"></path><path d="M811.6 537.74L811.6 537.74" stroke="hsla(191, 94.8%, 71.4%, 0.5)" stroke-width="1.5"></path><path d="M811.6 537.74L690.71 498.29" stroke="hsla(191, 94.8%, 71.4%, 0.5)" stroke-width="1.5"></path><path d="M799.1 701.71L799.1 701.71" stroke="hsla(191, 94.8%, 71.4%, 0.5)" stroke-width="1.5"></path><path d="M799.1 701.71L811.6 537.74" stroke="hsla(191, 94.8%, 71.4%, 0.5)" stroke-width="1.5"></path><path d="M799.1 701.71L1007.54 638.65" stroke="hsla(191, 94.8%, 71.4%, 0.5)" stroke-width="1.5"></path><path d="M799.1 701.71L978.33 557.06" stroke="hsla(191, 94.8%, 71.4%, 0.5)" stroke-width="1.5"></path><path d="M799.1 701.71L690.71 498.29" stroke="hsla(191, 94.8%, 71.4%, 0.5)" stroke-width="1.5"></path><path d="M799.1 701.71L516.26 679.87" stroke="hsla(191, 94.8%, 71.4%, 0.5)" stroke-width="1.5"></path><path d="M962.15 409.6L962.15 409.6" stroke="hsla(191, 94.8%, 71.4%, 0.5)" stroke-width="1.5"></path><path d="M962.15 409.6L1113.91 400.07" stroke="hsla(191, 94.8%, 71.4%, 0.5)" stroke-width="1.5"></path><path d="M962.15 409.6L811.6 537.74" stroke="hsla(191, 94.8%, 71.4%, 0.5)" stroke-width="1.5"></path><path d="M962.15 409.6L1088.39 246.65" stroke="hsla(191, 94.8%, 71.4%, 0.5)" stroke-width="1.5"></path><path d="M1007.54 638.65L1007.54 638.65" stroke="hsla(191, 94.8%, 71.4%, 0.5)" stroke-width="1.5"></path><path d="M1007.54 638.65L1120.01 558.99" stroke="hsla(191, 94.8%, 71.4%, 0.5)" stroke-width="1.5"></path><path d="M1007.54 638.65L811.6 537.74" stroke="hsla(191, 94.8%, 71.4%, 0.5)" stroke-width="1.5"></path><path d="M1088.39 246.65L1088.39 246.65" stroke="hsla(191, 94.8%, 71.4%, 0.5)" stroke-width="1.5"></path><path d="M1088.39 246.65L1113.91 400.07" stroke="hsla(191, 94.8%, 71.4%, 0.5)" stroke-width="1.5"></path><path d="M1088.39 246.65L1270.64 255.15" stroke="hsla(191, 94.8%, 71.4%, 0.5)" stroke-width="1.5"></path><path d="M1088.39 246.65L1302.14 342.03" stroke="hsla(191, 94.8%, 71.4%, 0.5)" stroke-width="1.5"></path><path d="M1088.39 246.65L1286.44 87.78" stroke="hsla(191, 94.8%, 71.4%, 0.5)" stroke-width="1.5"></path><path d="M1113.91 400.07L1113.91 400.07" stroke="hsla(191, 94.8%, 71.4%, 0.5)" stroke-width="1.5"></path><path d="M1120.01 558.99L1120.01 558.99" stroke="hsla(191, 94.8%, 71.4%, 0.5)" stroke-width="1.5"></path><path d="M1120.01 558.99L1113.91 400.07" stroke="hsla(191, 94.8%, 71.4%, 0.5)" stroke-width="1.5"></path><path d="M1120.01 558.99L1280.4 653.6" stroke="hsla(191, 94.8%, 71.4%, 0.5)" stroke-width="1.5"></path><path d="M1120.01 558.99L962.15 409.6" stroke="hsla(191, 94.8%, 71.4%, 0.5)" stroke-width="1.5"></path><path d="M1260.23 -52.78L1260.23 -52.78" stroke="hsla(191, 94.8%, 71.4%, 0.5)" stroke-width="1.5"></path><path d="M1260.23 -52.78L1286.44 87.78" stroke="hsla(191, 94.8%, 71.4%, 0.5)" stroke-width="1.5"></path><path d="M1260.23 -52.78L1426.47 45.81" stroke="hsla(191, 94.8%, 71.4%, 0.5)" stroke-width="1.5"></path><path d="M1260.23 -52.78L1544.9 -54.56" stroke="hsla(191, 94.8%, 71.4%, 0.5)" stroke-width="1.5"></path><path d="M1260.23 -52.78L1270.64 255.15" stroke="hsla(191, 94.8%, 71.4%, 0.5)" stroke-width="1.5"></path><path d="M1286.44 87.78L1286.44 87.78" stroke="hsla(191, 94.8%, 71.4%, 0.5)" stroke-width="1.5"></path><path d="M1286.44 87.78L1270.64 255.15" stroke="hsla(191, 94.8%, 71.4%, 0.5)" stroke-width="1.5"></path><path d="M1270.64 255.15L1270.64 255.15" stroke="hsla(191, 94.8%, 71.4%, 0.5)" stroke-width="1.5"></path><path d="M1270.64 255.15L1302.14 342.03" stroke="hsla(191, 94.8%, 71.4%, 0.5)" stroke-width="1.5"></path><path d="M1302.14 342.03L1302.14 342.03" stroke="hsla(191, 94.8%, 71.4%, 0.5)" stroke-width="1.5"></path><path d="M1302.14 342.03L1422.13 349.48" stroke="hsla(191, 94.8%, 71.4%, 0.5)" stroke-width="1.5"></path><path d="M1302.14 342.03L1388.77 240.78" stroke="hsla(191, 94.8%, 71.4%, 0.5)" stroke-width="1.5"></path><path d="M1302.14 342.03L1113.91 400.07" stroke="hsla(191, 94.8%, 71.4%, 0.5)" stroke-width="1.5"></path><path d="M1280.4 653.6L1280.4 653.6" stroke="hsla(191, 94.8%, 71.4%, 0.5)" stroke-width="1.5"></path><path d="M1280.4 653.6L1402.09 538.51" stroke="hsla(191, 94.8%, 71.4%, 0.5)" stroke-width="1.5"></path><path d="M1280.4 653.6L1447.7 679.64" stroke="hsla(191, 94.8%, 71.4%, 0.5)" stroke-width="1.5"></path><path d="M1280.4 653.6L1007.54 638.65" stroke="hsla(191, 94.8%, 71.4%, 0.5)" stroke-width="1.5"></path><path d="M1280.4 653.6L1555.51 544.46" stroke="hsla(191, 94.8%, 71.4%, 0.5)" stroke-width="1.5"></path><path d="M1388.77 240.78L1388.77 240.78" stroke="hsla(191, 94.8%, 71.4%, 0.5)" stroke-width="1.5"></path><path d="M1388.77 240.78L1422.13 349.48" stroke="hsla(191, 94.8%, 71.4%, 0.5)" stroke-width="1.5"></path><path d="M1388.77 240.78L1270.64 255.15" stroke="hsla(191, 94.8%, 71.4%, 0.5)" stroke-width="1.5"></path><path d="M1388.77 240.78L1286.44 87.78" stroke="hsla(191, 94.8%, 71.4%, 0.5)" stroke-width="1.5"></path><path d="M1388.77 240.78L1426.47 45.81" stroke="hsla(191, 94.8%, 71.4%, 0.5)" stroke-width="1.5"></path><path d="M1422.13 349.48L1422.13 349.48" stroke="hsla(191, 94.8%, 71.4%, 0.5)" stroke-width="1.5"></path><path d="M1422.13 349.48L1578.78 394.18" stroke="hsla(191, 94.8%, 71.4%, 0.5)" stroke-width="1.5"></path><path d="M1402.09 538.51L1402.09 538.51" stroke="hsla(191, 94.8%, 71.4%, 0.5)" stroke-width="1.5"></path><path d="M1402.09 538.51L1447.7 679.64" stroke="hsla(191, 94.8%, 71.4%, 0.5)" stroke-width="1.5"></path><path d="M1402.09 538.51L1555.51 544.46" stroke="hsla(191, 94.8%, 71.4%, 0.5)" stroke-width="1.5"></path><path d="M1447.7 679.64L1447.7 679.64" stroke="hsla(191, 94.8%, 71.4%, 0.5)" stroke-width="1.5"></path><path d="M1447.7 679.64L1600.2 659.43" stroke="hsla(191, 94.8%, 71.4%, 0.5)" stroke-width="1.5"></path><path d="M1447.7 679.64L1555.51 544.46" stroke="hsla(191, 94.8%, 71.4%, 0.5)" stroke-width="1.5"></path><path d="M1447.7 679.64L1578.78 394.18" stroke="hsla(191, 94.8%, 71.4%, 0.5)" stroke-width="1.5"></path><path d="M1544.9 -54.56L1544.9 -54.56" stroke="hsla(191, 94.8%, 71.4%, 0.5)" stroke-width="1.5"></path><path d="M1544.9 -54.56L1552.7 63.69" stroke="hsla(191, 94.8%, 71.4%, 0.5)" stroke-width="1.5"></path><path d="M1544.9 -54.56L1426.47 45.81" stroke="hsla(191, 94.8%, 71.4%, 0.5)" stroke-width="1.5"></path><path d="M1544.9 -54.56L1286.44 87.78" stroke="hsla(191, 94.8%, 71.4%, 0.5)" stroke-width="1.5"></path><path d="M1544.9 -54.56L1595.4 241.97" stroke="hsla(191, 94.8%, 71.4%, 0.5)" stroke-width="1.5"></path><path d="M1552.7 63.69L1552.7 63.69" stroke="hsla(191, 94.8%, 71.4%, 0.5)" stroke-width="1.5"></path><path d="M1578.78 394.18L1578.78 394.18" stroke="hsla(191, 94.8%, 71.4%, 0.5)" stroke-width="1.5"></path><path d="M1578.78 394.18L1555.51 544.46" stroke="hsla(191, 94.8%, 71.4%, 0.5)" stroke-width="1.5"></path><path d="M1578.78 394.18L1402.09 538.51" stroke="hsla(191, 94.8%, 71.4%, 0.5)" stroke-width="1.5"></path><path d="M1555.51 544.46L1555.51 544.46" stroke="hsla(191, 94.8%, 71.4%, 0.5)" stroke-width="1.5"></path><path d="M1555.51 544.46L1600.2 659.43" stroke="hsla(191, 94.8%, 71.4%, 0.5)" stroke-width="1.5"></path><path d="M1555.51 544.46L1422.13 349.48" stroke="hsla(191, 94.8%, 71.4%, 0.5)" stroke-width="1.5"></path><path d="M1600.2 659.43L1600.2 659.43" stroke="hsla(191, 94.8%, 71.4%, 0.5)" stroke-width="1.5"></path><path d="M1600.2 659.43L1402.09 538.51" stroke="hsla(191, 94.8%, 71.4%, 0.5)" stroke-width="1.5"></path><circle r="25" cx="105.89" cy="529.79" fill="url(&quot;#SvgjsRadialGradient1462&quot;)"></circle><circle r="25" cx="398.81" cy="535.63" fill="url(&quot;#SvgjsRadialGradient1462&quot;)"></circle><circle r="25" cx="658.8" cy="693.44" fill="url(&quot;#SvgjsRadialGradient1462&quot;)"></circle><circle r="25" cx="978.33" cy="557.06" fill="url(&quot;#SvgjsRadialGradient1462&quot;)"></circle><circle r="25" cx="1438.06" cy="-90.44" fill="url(&quot;#SvgjsRadialGradient1462&quot;)"></circle><circle r="25" cx="1426.47" cy="45.81" fill="url(&quot;#SvgjsRadialGradient1462&quot;)"></circle><circle r="25" cx="1595.4" cy="241.97" fill="url(&quot;#SvgjsRadialGradient1462&quot;)"></circle><circle r="5" cx="-109.91" cy="524.47" fill="rgba(199, 244, 254, 0.75)"></circle><circle r="5" cx="-74.94" cy="670.88" fill="rgba(199, 244, 254, 0.75)"></circle><circle r="5" cx="96.85" cy="699.44" fill="rgba(199, 244, 254, 0.75)"></circle><circle r="5" cx="260.82" cy="519.94" fill="rgba(199, 244, 254, 0.75)"></circle><circle r="5" cx="190.94" cy="672.04" fill="rgba(199, 244, 254, 0.75)"></circle><circle r="5" cx="412.48" cy="647.07" fill="rgba(199, 244, 254, 0.75)"></circle><circle r="5" cx="523.11" cy="507.57" fill="rgba(199, 244, 254, 0.75)"></circle><circle r="5" cx="516.26" cy="679.87" fill="rgba(199, 244, 254, 0.75)"></circle><circle r="5" cx="664.85" cy="394.23" fill="rgba(199, 244, 254, 0.75)"></circle><circle r="5" cx="690.71" cy="498.29" fill="rgba(199, 244, 254, 0.75)"></circle><circle r="5" cx="812.95" cy="403.29" fill="rgba(199, 244, 254, 0.75)"></circle><circle r="5" cx="811.6" cy="537.74" fill="rgba(199, 244, 254, 0.75)"></circle><circle r="5" cx="799.1" cy="701.71" fill="rgba(199, 244, 254, 0.75)"></circle><circle r="5" cx="962.15" cy="409.6" fill="rgba(199, 244, 254, 0.75)"></circle><circle r="5" cx="1007.54" cy="638.65" fill="rgba(199, 244, 254, 0.75)"></circle><circle r="5" cx="1088.39" cy="246.65" fill="rgba(199, 244, 254, 0.75)"></circle><circle r="5" cx="1113.91" cy="400.07" fill="rgba(199, 244, 254, 0.75)"></circle><circle r="5" cx="1120.01" cy="558.99" fill="rgba(199, 244, 254, 0.75)"></circle><circle r="5" cx="1260.23" cy="-52.78" fill="rgba(199, 244, 254, 0.75)"></circle><circle r="5" cx="1286.44" cy="87.78" fill="rgba(199, 244, 254, 0.75)"></circle><circle r="5" cx="1270.64" cy="255.15" fill="rgba(199, 244, 254, 0.75)"></circle><circle r="5" cx="1302.14" cy="342.03" fill="rgba(199, 244, 254, 0.75)"></circle><circle r="5" cx="1280.4" cy="653.6" fill="rgba(199, 244, 254, 0.75)"></circle><circle r="5" cx="1388.77" cy="240.78" fill="rgba(199, 244, 254, 0.75)"></circle><circle r="5" cx="1422.13" cy="349.48" fill="rgba(199, 244, 254, 0.75)"></circle><circle r="5" cx="1402.09" cy="538.51" fill="rgba(199, 244, 254, 0.75)"></circle><circle r="5" cx="1447.7" cy="679.64" fill="rgba(199, 244, 254, 0.75)"></circle><circle r="5" cx="1544.9" cy="-54.56" fill="rgba(199, 244, 254, 0.75)"></circle><circle r="5" cx="1552.7" cy="63.69" fill="rgba(199, 244, 254, 0.75)"></circle><circle r="5" cx="1578.78" cy="394.18" fill="rgba(199, 244, 254, 0.75)"></circle><circle r="5" cx="1555.51" cy="544.46" fill="rgba(199, 244, 254, 0.75)"></circle><circle r="5" cx="1600.2" cy="659.43" fill="rgba(199, 244, 254, 0.75)"></circle></g><defs><mask id="SvgjsMask1461"><rect width="1440" height="560" fill="#ffffff"></rect></mask><radialGradient id="SvgjsRadialGradient1462"><stop stop-color="#ffffff" offset="0.1"></stop><stop stop-color="rgba(31, 209, 249, 0.5)" offset="0.2"></stop><stop stop-color="rgba(31, 209, 249, 0)" offset="1"></stop></radialGradient></defs></svg>